<svg width="50" height="46" viewBox="0 0 50 46" fill="none" xmlns="http://www.w3.org/2000/svg">
<path d="M43.75 42.1665H6.25C5.39583 42.1665 4.6875 41.5148 4.6875 40.729C4.6875 39.9432 5.39583 39.2915 6.25 39.2915H43.75C44.6042 39.2915 45.3125 39.9432 45.3125 40.729C45.3125 41.5148 44.6042 42.1665 43.75 42.1665Z" fill="#FF3A44"/>
<path d="M39.6257 6.67002C35.584 2.95168 31.6257 2.85585 27.4798 6.67002L24.959 8.98918C24.7507 9.18085 24.6674 9.48752 24.7507 9.75585C26.334 14.835 30.7507 18.8983 36.2715 20.355C36.3548 20.3742 36.4382 20.3934 36.5215 20.3934C36.7507 20.3934 36.959 20.3167 37.1257 20.1634L39.6257 17.8442C41.6882 15.9659 42.6882 14.145 42.6882 12.305C42.709 10.4075 41.709 8.56752 39.6257 6.67002Z" fill="#FF3A44"/>
<path d="M32.5213 22.099C31.9172 21.8307 31.3338 21.5624 30.7713 21.2557C30.313 21.0065 29.8755 20.7382 29.438 20.4507C29.0838 20.2399 28.6672 19.9332 28.2713 19.6265C28.2297 19.6074 28.0838 19.4924 27.9172 19.339C27.2297 18.8024 26.4588 18.1124 25.7713 17.3457C25.7088 17.3074 25.6047 17.1732 25.4588 17.0007C25.2505 16.7707 24.8963 16.3874 24.5838 15.9465C24.3338 15.659 24.0422 15.2374 23.7713 14.8157C23.438 14.2982 23.1463 13.7807 22.8547 13.244C22.6851 12.9097 22.5366 12.5819 22.4011 12.2643C22.2639 11.9428 21.8505 11.8487 21.5932 12.0854L9.04217 23.6324C8.77133 23.8815 8.52133 24.3607 8.45883 24.6865L7.33383 32.0274C7.1255 33.3307 7.52134 34.5574 8.39634 35.3815C9.14634 36.0524 10.188 36.4165 11.313 36.4165C11.563 36.4165 11.813 36.3974 12.063 36.359L20.063 35.324C20.438 35.2665 20.9588 35.0365 21.2088 34.7874L33.665 23.3277C33.946 23.0692 33.8459 22.6019 33.4875 22.4704C33.1748 22.3557 32.8571 22.2329 32.5213 22.099Z" fill="#FF3A44"/>
</svg>
