<?xml version="1.0" encoding="UTF-8" standalone="no"?>
<!-- Created with Inkscape (http://www.inkscape.org/) -->

<svg
   version="1.1"
   id="svg854"
   width="500"
   height="500"
   viewBox="0 0 500 500"
   sodipodi:docname="logo_ingenero_verde.svg"
   inkscape:version="1.1.2 (0a00cf5339, 2022-02-04)"
   xmlns:inkscape="http://www.inkscape.org/namespaces/inkscape"
   xmlns:sodipodi="http://sodipodi.sourceforge.net/DTD/sodipodi-0.dtd"
   xmlns="http://www.w3.org/2000/svg"
   xmlns:svg="http://www.w3.org/2000/svg">
  <defs
     id="defs858" />
  <sodipodi:namedview
     id="namedview856"
     pagecolor="#505050"
     bordercolor="#eeeeee"
     borderopacity="1"
     inkscape:pageshadow="0"
     inkscape:pageopacity="0"
     inkscape:pagecheckerboard="0"
     showgrid="true"
     inkscape:zoom="5.6568542"
     inkscape:cx="219.2031"
     inkscape:cy="178.72124"
     inkscape:window-width="1920"
     inkscape:window-height="1012"
     inkscape:window-x="0"
     inkscape:window-y="0"
     inkscape:window-maximized="1"
     inkscape:current-layer="g860">
    <inkscape:grid
       type="xygrid"
       id="grid864"
       units="cm"
       originx="37.795276"
       originy="37.795276"
       spacingx="1.8897638"
       spacingy="1.8897638" />
  </sodipodi:namedview>
  <g
     inkscape:groupmode="layer"
     inkscape:label="Image"
     id="g860">
    <path
       style="fill:#ec671a;fill-opacity:1;stroke:none;stroke-width:1.33359px;stroke-linecap:butt;stroke-linejoin:miter;stroke-opacity:1"
       d="m 194.78489,105.82677 c -2.56492,24.76227 -25.64928,42.09586 -43.60379,42.09586 m 0,0 v -9.9049 -4.95246 c 0,0 27.52418,-7.69275 28.21422,-27.2385 v 0 h 15.38957 m -15.25733,20.7874"
       id="path6323"
       sodipodi:nodetypes="cccccccc" />
    <path
       style="fill:#a3c514;fill-opacity:1;stroke:none;stroke-width:1.21421px;stroke-linecap:butt;stroke-linejoin:miter;stroke-opacity:1"
       d="m 201.66643,105.82677 h 13.76664 c 0,0 0,55.07313 -64.24428,64.25197 v 0 l -0.26248,-13.61791 c 0,0 46.15126,-7.03451 50.74012,-50.63406 v 0"
       id="path11643"
       sodipodi:nodetypes="ccccccc" />
    <path
       style="fill:#85c8b2;fill-opacity:1;stroke:none;stroke-width:1.73926px;stroke-linecap:butt;stroke-linejoin:miter;stroke-opacity:1"
       d="m 151.18115,105.82677 h 20.78736 c 0,0 0,15.59077 -20.69464,19.18798 l -0.0927,-0.47907 v -18.70891"
       id="path13977"
       sodipodi:nodetypes="ccccc" />
    <path
       style="fill:none;stroke:none;stroke-width:1px;stroke-linecap:butt;stroke-linejoin:miter;stroke-opacity:1"
       d="m 217.32284,103.93701 v 26.45669 c 0,0 -10.55598,43.02398 -64.29821,45.1336 l -3.73329,0.22073 0,-71.81102 v 0 h 68.0315 z"
       id="path14491"
       sodipodi:nodetypes="ccsccccc" />
    <path
       style="fill:none;stroke:none;stroke-width:1px;stroke-linecap:butt;stroke-linejoin:miter;stroke-opacity:1"
       d="m 275.90551,113.38583 h -11.33858 c 0,0 1.29625,7.22532 9.26954,10.49111 l 2.06904,0.84747 0,-11.33858"
       id="path14697"
       sodipodi:nodetypes="ccscc" />
    <path
       style="fill:none;stroke:none;stroke-width:1px;stroke-linecap:butt;stroke-linejoin:miter;stroke-opacity:1"
       d="m 217.32284,103.93701 h 68.03149 v 71.81102 c 0,0 -44.91294,3.27862 -65.77073,-40.59852 l -2.26076,-4.75581 z"
       id="path16309"
       sodipodi:nodetypes="cccscc" />
    <path
       style="fill:none;stroke:none;stroke-width:1px;stroke-linecap:butt;stroke-linejoin:miter;stroke-opacity:1"
       d="m 224.88189,113.38583 h 9.44882 c 0,0 3.77953,35.35983 40.40214,41.38197 l 1.17266,0.19283 v 11.33858 c -1.88976,0 -51.69064,-9.24896 -51.02362,-52.91338 z"
       id="path16747"
       sodipodi:nodetypes="ccsccc" />
    <path
       style="fill:none;stroke:none;stroke-width:1px;stroke-linecap:butt;stroke-linejoin:miter;stroke-opacity:1"
       d="m 243.77953,113.38583 h 11.33858 c 0,0 1.88977,15.11811 20.7874,20.7874 0,3.77953 0,8.94119 0,11.33858 0,0 -26.45669,-1.88976 -32.12598,-32.12598 z"
       id="path19537"
       sodipodi:nodetypes="ccccc" />
    <path
       style="fill:none;stroke:#00000f;stroke-width:0.986013px;stroke-linecap:butt;stroke-linejoin:miter;stroke-opacity:1"
       d="M 151.1811,175.74803 V 240 h 66.14174 V 130.3937 c -5.51182,20.78741 -27.55906,45.35434 -66.14174,45.35433 z"
       id="path20735"
       sodipodi:nodetypes="ccccc" />
    <path
       style="fill:#592451;fill-opacity:1;stroke:#592451;stroke-width:1.65683px;stroke-linecap:butt;stroke-linejoin:miter;stroke-opacity:1"
       d="m 156.8504,179.52756 v 56.69292 h 26.4567 c -17.6378,-33.34878 14.69817,-40.01853 -26.4567,-56.69292 z"
       id="path38053"
       sodipodi:nodetypes="cccc" />
    <path
       style="fill:#592451;fill-opacity:1;stroke:none;stroke-width:1.8103px;stroke-linecap:butt;stroke-linejoin:miter;stroke-opacity:1"
       d="M 283.46459,105.82677 H 262.6772 c 0,0 0,16.89034 20.69467,20.7874 l 0.0927,-0.519 v -20.2684"
       id="path13977-6"
       sodipodi:nodetypes="ccccc" />
    <path
       style="fill:#592451;fill-opacity:1;stroke:none;stroke-width:1.33361px;stroke-linecap:butt;stroke-linejoin:miter;stroke-opacity:1"
       d="m 239.8608,105.82677 c 2.56493,24.76227 25.64926,42.09586 43.60377,42.09586 m 0,0 v -9.9049 -4.95246 c 0,0 -27.52416,-7.69274 -28.21421,-27.2385 v 0 H 239.8608 m 15.25731,20.7874"
       id="path6323-7"
       sodipodi:nodetypes="cccccccc" />
    <path
       style="fill:#592451;fill-opacity:1;stroke:none;stroke-width:1.17876px;stroke-linecap:butt;stroke-linejoin:miter;stroke-opacity:1"
       d="m 232.91755,105.82677 h -13.78556 c 0,0 0,51.83354 64.33258,60.47244 v 0 l 0.26284,-12.81685 c 0,0 -46.21469,-6.62072 -50.80986,-47.65559 v 0"
       id="path11643-5"
       sodipodi:nodetypes="ccccccc" />
    <path
       style="fill:#592451;fill-opacity:1;stroke:#592451;stroke-width:1.56972px;stroke-linecap:butt;stroke-linejoin:miter;stroke-opacity:1"
       d="m 277.79528,181.41732 v 54.80316 h -24.56692 c 16.37794,-32.23715 -13.64829,-38.68458 24.56692,-54.80316 z"
       id="path38053-3"
       sodipodi:nodetypes="cccc" />
    <path
       style="fill:none;stroke:#000000;stroke-width:0.986013px;stroke-linecap:butt;stroke-linejoin:miter;stroke-opacity:1"
       d="M 283.46457,175.74802 V 240 H 217.32284 V 130.3937 c 5.51183,20.7874 27.55906,45.35435 66.14173,45.35432 z"
       id="path20735-5"
       sodipodi:nodetypes="ccccc" />
  </g>
</svg>
