<svg width="50" height="46" viewBox="0 0 50 46" fill="none" xmlns="http://www.w3.org/2000/svg">
<path d="M33.7285 3.8335H16.2702C8.68685 3.8335 4.16602 7.99266 4.16602 14.9693V31.031C4.16602 36.4168 6.85352 40.116 11.5827 41.5152C12.9577 41.956 14.541 42.1668 16.2702 42.1668H33.7285C35.4577 42.1668 37.041 41.956 38.416 41.5152C43.1452 40.116 45.8327 36.4168 45.8327 31.031V14.9693C45.8327 7.99266 41.3118 3.8335 33.7285 3.8335ZM42.7077 31.031C42.7077 35.1327 40.9577 37.7202 37.4368 38.7935C35.416 35.1327 30.6243 32.526 24.9993 32.526C19.3743 32.526 14.6035 35.1135 12.5618 38.7935H12.541C9.06185 37.7585 7.29102 35.1518 7.29102 31.0502V14.9693C7.29102 9.56433 10.3952 6.7085 16.2702 6.7085H33.7285C39.6035 6.7085 42.7077 9.56433 42.7077 14.9693V31.031Z" fill="#FF3A44"/>
<path d="M24.9993 15.3335C20.8743 15.3335 17.541 18.4002 17.541 22.1952C17.541 25.9902 20.8743 29.076 24.9993 29.076C29.1243 29.076 32.4577 25.9902 32.4577 22.1952C32.4577 18.4002 29.1243 15.3335 24.9993 15.3335Z" fill="#FF3A44"/>
</svg>
