<svg width="40" height="35" viewBox="0 0 40 35" fill="none" xmlns="http://www.w3.org/2000/svg">
<path d="M29 25.0225L38.2621 32.8007" stroke="#937C7C" stroke-width="3" stroke-linecap="round" stroke-linejoin="round"/>
<path d="M29 25.0225L38.2621 32.8007" stroke="black" stroke-opacity="0.2" stroke-width="3" stroke-linecap="round" stroke-linejoin="round"/>
<path d="M2.03516 15.4724C2.05458 22.8599 8.17501 28.8324 15.7055 28.8123C19.4773 28.8023 22.8876 27.2908 25.3496 24.8562C27.8033 22.4302 29.3153 19.0872 29.3056 15.3998C29.2862 8.01233 23.1657 2.03985 15.6352 2.0599C8.10469 2.07994 2.01574 8.08492 2.03516 15.4724Z" stroke="#937C7C" stroke-width="3" stroke-linecap="round" stroke-linejoin="round"/>
<path d="M2.03516 15.4724C2.05458 22.8599 8.17501 28.8324 15.7055 28.8123C19.4773 28.8023 22.8876 27.2908 25.3496 24.8562C27.8033 22.4302 29.3153 19.0872 29.3056 15.3998C29.2862 8.01233 23.1657 2.03985 15.6352 2.0599C8.10469 2.07994 2.01574 8.08492 2.03516 15.4724Z" stroke="black" stroke-opacity="0.2" stroke-width="3" stroke-linecap="round" stroke-linejoin="round"/>
</svg>
