<svg width="268" height="134" viewBox="0 0 268 134" fill="none" xmlns="http://www.w3.org/2000/svg">
<rect width="268" height="134" fill="white"/>
<path d="M51.4354 18.3892C49.5503 36.5883 32.5844 49.3277 19.3887 49.3277ZM19.3887 49.3277V42.0481V38.4082C19.3887 38.4082 39.6177 32.7544 40.1248 18.3892H51.4354" fill="#EC671A"/>
<path d="M56.4928 18.3892H66.6106C66.6106 18.3892 66.6106 58.8654 19.3941 65.6114L19.2012 55.6029C19.2012 55.6029 53.1202 50.4328 56.4928 18.3892Z" fill="#A3C514"/>
<path d="M19.3887 18.3892H34.6664C34.6664 18.3892 34.6664 29.8477 19.4568 32.4915L19.3887 32.1394L19.3887 18.3892Z" fill="#85C8B2"/>
<path d="M19.3887 69.7777V117H67.9998V36.4443C63.9489 51.7221 47.7452 69.7777 19.3887 69.7777Z" stroke="#00000F" stroke-width="0.986013"/>
<path d="M23.5547 72.5557V114.222H42.9991C30.0362 89.7125 53.8016 84.8106 23.5547 72.5557Z" fill="#592451" stroke="#592451" stroke-width="1.65683"/>
<path d="M116.611 18.3892H101.333C101.333 18.3892 101.333 30.8028 116.543 33.667L116.611 33.2855L116.611 18.3892Z" fill="#592451"/>
<path d="M84.5645 18.3892C86.4496 36.5883 103.415 49.3277 116.611 49.3277ZM116.611 49.3277V42.0481V38.4082C116.611 38.4082 96.3822 32.7544 95.8751 18.3892H84.5645" fill="#592451"/>
<path d="M79.4618 18.3892H69.3301C69.3301 18.3892 69.3301 56.4845 116.612 62.8337L116.805 53.4139C116.805 53.4139 82.8391 48.5479 79.4618 18.3892Z" fill="#592451"/>
<path d="M112.444 73.9443V114.222H94.3887C106.426 90.5293 84.3578 85.7908 112.444 73.9443Z" fill="#592451" stroke="#592451" stroke-width="1.56972"/>
<path d="M116.611 69.7777V117H68V36.4443C72.0509 51.7221 88.2546 69.7777 116.611 69.7777Z" stroke="black" stroke-width="0.986013"/>
<path d="M138.972 41.002L143.212 19.3067L147.18 19.311L152.032 32.1194L156.914 19.3218L160.882 19.3261L165.074 41.0308L160.331 41.0255L158.081 29.3051L153.635 41.0182L150.411 41.0146L145.991 29.2917L143.715 41.0073L138.972 41.002ZM168.021 25.534L172.671 25.5391L172.654 41.0391L168.004 41.034L168.021 25.534ZM170.379 23.9246C169.707 23.9238 169.144 23.7011 168.69 23.2562C168.236 22.8114 168.009 22.2583 168.01 21.597C168.01 20.946 168.238 20.3986 168.694 19.9547C169.149 19.5006 169.707 19.2738 170.368 19.2746C171.019 19.2753 171.567 19.5032 172.011 19.9584C172.465 20.4032 172.691 20.9511 172.691 21.6021C172.69 22.2635 172.467 22.8161 172.022 23.2599C171.588 23.7038 171.04 23.9253 170.379 23.9246ZM194.533 41.0632L188.519 41.0566L182.894 25.5504L187.854 25.5558L191.531 35.7279L195.232 25.5639L200.192 25.5694L194.533 41.0632ZM202.351 25.5718L207.001 25.5769L206.984 41.0769L202.334 41.0718L202.351 25.5718ZM204.709 23.9624C204.037 23.9616 203.474 23.7388 203.02 23.294C202.566 22.8492 202.339 22.2961 202.34 21.6348C202.341 20.9838 202.568 20.4364 203.024 19.9925C203.479 19.5384 204.037 19.3116 204.698 19.3124C205.349 19.3131 205.897 19.541 206.341 19.9962C206.795 20.441 207.022 20.9889 207.021 21.6399C207.02 22.3013 206.797 22.8538 206.352 23.2977C205.918 23.7415 205.37 23.9631 204.709 23.9624ZM221.421 17.8428L226.071 17.8479L226.045 41.0979L221.395 41.0928L221.397 39.6668C220.921 40.2036 220.352 40.6421 219.69 40.9824C219.039 41.3227 218.295 41.4923 217.458 41.4914C216.331 41.4902 215.278 41.2772 214.297 40.8524C213.315 40.4277 212.448 39.8429 211.694 39.0981C210.951 38.3429 210.368 37.4743 209.946 36.4921C209.523 35.51 209.313 34.4558 209.314 33.3295C209.315 32.2031 209.528 31.1494 209.953 30.1682C210.378 29.187 210.962 28.3248 211.707 27.5816C212.462 26.8281 213.331 26.24 214.313 25.8174C215.295 25.3949 216.349 25.1842 217.476 25.1854C218.313 25.1863 219.057 25.3577 219.707 25.6994C220.368 26.0308 220.936 26.4706 221.411 27.0188L221.421 17.8428ZM217.525 37.0275C218.165 37.0282 218.749 36.8635 219.277 36.5334C219.804 36.2033 220.223 35.7595 220.534 35.2018C220.844 34.6441 221 34.0243 221.001 33.3423C221.002 32.6603 220.847 32.0401 220.538 31.4818C220.228 30.9235 219.81 30.4787 219.284 30.1474C218.757 29.8162 218.174 29.6502 217.533 29.6495C216.892 29.6488 216.308 29.8135 215.781 30.1436C215.264 30.4737 214.85 30.9175 214.539 31.4752C214.239 32.0329 214.089 32.6527 214.088 33.3347C214.087 34.0167 214.241 34.6369 214.551 35.1952C214.86 35.7536 215.273 36.1983 215.789 36.5296C216.316 36.8608 216.894 37.0268 217.525 37.0275ZM240.575 25.6139L245.225 25.619L245.208 41.119L240.542 41.1138L240.327 39.7186C239.944 40.2555 239.458 40.689 238.868 41.019C238.289 41.349 237.612 41.5136 236.837 41.5127C235.68 41.5115 234.595 41.2933 233.583 40.8582C232.581 40.4231 231.698 39.8228 230.934 39.0573C230.171 38.2814 229.572 37.3921 229.139 36.3893C228.717 35.3761 228.506 34.2909 228.507 33.1336C228.509 32.0279 228.711 30.9948 229.115 30.0342C229.519 29.0737 230.083 28.2321 230.808 27.5096C231.542 26.7767 232.385 26.2042 233.336 25.7919C234.297 25.3796 235.326 25.1741 236.421 25.1753C237.31 25.1763 238.116 25.3631 238.839 25.7359C239.572 26.0984 240.222 26.5538 240.79 27.1021L240.575 25.6139ZM236.718 37.0486C237.359 37.0493 237.943 36.8846 238.47 36.5545C238.997 36.2245 239.416 35.7806 239.727 35.2229C240.038 34.6653 240.193 34.0454 240.194 33.3634C240.195 32.6814 240.041 32.0613 239.731 31.5029C239.422 30.9446 239.004 30.4998 238.477 30.1685C237.951 29.8373 237.367 29.6713 236.726 29.6706C236.086 29.6699 235.502 29.8346 234.974 30.1647C234.457 30.4948 234.043 30.9387 233.733 31.4963C233.432 32.054 233.282 32.6738 233.281 33.3558C233.28 34.0378 233.435 34.658 233.744 35.2163C234.053 35.7747 234.466 36.2195 234.983 36.5507C235.509 36.882 236.088 37.0479 236.718 37.0486ZM145.75 78.4125C144.324 78.4109 143.023 78.0427 141.846 77.3077C140.679 76.5728 139.745 75.5849 139.043 74.3441C138.352 73.1034 138.008 71.7338 138.009 70.2355C138.011 69.1092 138.213 68.0554 138.617 67.0742C139.022 66.0826 139.575 65.2152 140.279 64.472C140.993 63.7184 141.82 63.1303 142.761 62.7077C143.702 62.2851 144.704 62.0744 145.768 62.0755C147.008 62.0769 148.14 62.352 149.162 62.9008C150.195 63.4392 151.062 64.1739 151.764 65.1046C152.476 66.0251 152.981 67.0641 153.279 68.2218C153.578 69.3795 153.607 70.573 153.368 71.8024L143.03 71.791C143.174 72.1528 143.365 72.4837 143.602 72.7836C143.85 73.0733 144.149 73.3061 144.5 73.4821C144.862 73.6582 145.28 73.7517 145.756 73.7625C146.21 73.7734 146.629 73.6756 147.011 73.4694C147.404 73.2632 147.746 72.9845 148.035 72.6335L152.777 73.7392C152.145 75.1129 151.204 76.2382 149.952 77.1151C148.701 77.9818 147.3 78.4142 145.75 78.4125ZM142.863 68.3808L148.675 68.3872C148.531 67.9427 148.315 67.5498 148.026 67.2085C147.737 66.8672 147.396 66.5982 147.004 66.4014C146.622 66.2046 146.208 66.106 145.764 66.1055C145.33 66.105 144.917 66.2028 144.524 66.3987C144.141 66.5946 143.805 66.8629 143.515 67.2035C143.236 67.5442 143.018 67.9367 142.863 68.3808ZM160.408 78.3046C159.623 78.2315 158.869 78.0601 158.146 77.7907C157.423 77.5212 156.777 77.1537 156.21 76.688C155.642 76.2224 155.193 75.6536 154.863 74.9815L158.771 73.3118C158.874 73.4256 159.018 73.5704 159.204 73.7463C159.39 73.9119 159.622 74.0619 159.901 74.1966C160.19 74.3312 160.537 74.3988 160.94 74.3992C161.208 74.3995 161.467 74.374 161.715 74.3226C161.973 74.2609 162.18 74.1578 162.335 74.0133C162.5 73.8688 162.583 73.6674 162.584 73.409C162.584 73.1197 162.476 72.9026 162.259 72.7577C162.052 72.6025 161.799 72.4937 161.5 72.4313C161.2 72.3587 160.921 72.3015 160.663 72.2599C159.743 72.1142 158.86 71.8239 158.013 71.389C157.177 70.9438 156.49 70.3695 155.954 69.6662C155.417 68.9526 155.149 68.1205 155.151 67.1699C155.152 66.1055 155.427 65.1862 155.975 64.4118C156.524 63.6374 157.237 63.044 158.116 62.6316C159.005 62.2089 159.961 61.9981 160.984 61.9993C162.193 62.0006 163.309 62.2498 164.331 62.747C165.364 63.2441 166.211 63.958 166.871 64.8888L163.211 67.0547C163.087 66.8996 162.932 66.7444 162.746 66.5892C162.571 66.4237 162.364 66.284 162.127 66.17C161.899 66.0458 161.652 65.968 161.383 65.9367C161.021 65.9053 160.696 65.9205 160.406 65.9821C160.127 66.0335 159.905 66.1469 159.739 66.3224C159.574 66.4876 159.491 66.7303 159.491 67.0506C159.49 67.3503 159.635 67.5675 159.924 67.7021C160.213 67.8368 160.539 67.9353 160.9 67.9977C161.262 68.0601 161.556 68.1276 161.783 68.2002C162.672 68.4905 163.508 68.8686 164.293 69.3344C165.078 69.8003 165.708 70.3641 166.182 71.026C166.667 71.6879 166.894 72.4631 166.862 73.3517C166.861 74.3851 166.55 75.2941 165.929 76.0787C165.308 76.8634 164.506 77.4567 163.524 77.8586C162.542 78.2605 161.503 78.4092 160.408 78.3046ZM181.566 85.7989L176.916 85.7938L176.941 62.5438L181.591 62.549L181.59 64.006C182.076 63.4588 182.639 63.0151 183.28 62.6748C183.922 62.3242 184.661 62.1493 185.498 62.1503C186.634 62.1515 187.693 62.3645 188.674 62.7892C189.656 63.214 190.518 63.8039 191.261 64.5591C192.014 65.3039 192.597 66.1674 193.01 67.1495C193.432 68.1317 193.643 69.1859 193.642 70.3122C193.64 71.4386 193.427 72.4975 193.003 73.489C192.588 74.4806 192.003 75.3531 191.248 76.1066C190.503 76.8498 189.64 77.4327 188.658 77.8552C187.676 78.2778 186.616 78.4885 185.48 78.4872C184.643 78.4863 183.904 78.3098 183.264 77.9578C182.623 77.6058 182.061 77.1608 181.576 76.6229L181.566 85.7989ZM185.431 66.6142C184.8 66.6135 184.221 66.7834 183.694 67.1238C183.177 67.4539 182.763 67.8977 182.453 68.4554C182.142 69.0131 181.986 69.6277 181.986 70.2994C181.985 70.9814 182.139 71.6016 182.449 72.1599C182.758 72.7182 183.171 73.163 183.687 73.4943C184.214 73.8255 184.792 73.9915 185.423 73.9922C186.063 73.9929 186.647 73.8282 187.175 73.4981C187.702 73.168 188.121 72.7241 188.432 72.1665C188.742 71.6088 188.898 70.989 188.899 70.307C188.899 69.6353 188.745 69.0203 188.436 68.462C188.126 67.9037 187.708 67.4589 187.182 67.1276C186.655 66.786 186.071 66.6149 185.431 66.6142ZM194.898 72.4371L194.909 62.5636L199.559 62.5687L199.55 71.1402C199.549 71.6259 199.667 72.0704 199.905 72.4736C200.142 72.8665 200.457 73.1821 200.849 73.4202C201.252 73.6479 201.691 73.7621 202.166 73.7626C202.652 73.7631 203.091 73.65 203.484 73.4231C203.887 73.1858 204.203 72.871 204.431 72.4786C204.669 72.0759 204.788 71.6317 204.789 71.146L204.798 62.5745L209.448 62.5796L209.446 78.0796L204.796 78.0745L204.782 77.067C204.265 77.5108 203.675 77.8563 203.014 78.1035C202.352 78.3508 201.655 78.474 200.921 78.4732C199.815 78.472 198.803 78.2022 197.884 77.6639C196.975 77.1152 196.247 76.3859 195.701 75.476C195.164 74.5661 194.897 73.5531 194.898 72.4371ZM212.571 78.0831L212.573 62.5831L217.223 62.5882L217.237 63.5647C217.755 63.1209 218.344 62.7754 219.005 62.5281C219.667 62.2809 220.365 62.1576 221.098 62.1584C221.656 62.1591 222.225 62.2423 222.803 62.4083L220.969 67.1183C220.607 66.9526 220.236 66.8695 219.853 66.8691C219.368 66.8685 218.923 66.9869 218.52 67.2241C218.127 67.451 217.811 67.7658 217.573 68.1686C217.346 68.561 217.231 69 217.231 69.4857L217.221 78.0882L212.571 78.0831ZM230.546 78.5058C229.12 78.5043 227.819 78.136 226.642 77.401C225.475 76.6661 224.541 75.6834 223.839 74.453C223.148 73.2122 222.804 71.8427 222.805 70.3443C222.807 69.2077 223.009 68.1487 223.413 67.1675C223.817 66.1759 224.371 65.3085 225.075 64.5653C225.788 63.8118 226.616 63.2237 227.557 62.801C228.497 62.3784 229.5 62.1677 230.564 62.1689C231.99 62.1704 233.287 62.5387 234.454 63.2736C235.631 64.0086 236.565 64.9965 237.256 66.2372C237.957 67.478 238.307 68.8527 238.305 70.3614C238.304 71.4877 238.101 72.5415 237.697 73.5227C237.293 74.5039 236.734 75.3713 236.02 76.1249C235.317 76.8681 234.495 77.451 233.554 77.8737C232.624 78.2963 231.621 78.507 230.546 78.5058ZM230.551 73.8559C231.14 73.8565 231.668 73.6969 232.133 73.3771C232.609 73.0573 232.981 72.634 233.25 72.1073C233.52 71.5703 233.655 70.9866 233.655 70.3563C233.656 69.7053 233.512 69.1109 233.223 68.5733C232.945 68.0356 232.568 67.6116 232.093 67.301C231.628 66.9802 231.117 66.8195 230.559 66.8189C229.981 66.8182 229.453 66.983 228.978 67.3131C228.512 67.6329 228.14 68.0614 227.86 68.5984C227.591 69.1354 227.456 69.7191 227.455 70.3494C227.455 71.0108 227.593 71.6051 227.872 72.1324C228.161 72.6597 228.537 73.0786 229.002 73.3891C229.477 73.6997 229.993 73.8552 230.551 73.8559ZM147.427 104.161L144.792 104.158L144.78 115.008L140.13 115.003L140.142 104.153L138.127 104.151L138.132 99.5011L140.147 99.5034L140.153 94.6364L144.803 94.6415L144.797 99.5085L147.432 99.5114L147.427 104.161ZM156.729 115.425C155.303 115.423 154.002 115.055 152.824 114.32C151.658 113.585 150.724 112.597 150.022 111.356C149.331 110.115 148.987 108.746 148.988 107.248C148.989 106.121 149.192 105.067 149.596 104.086C150 103.095 150.554 102.227 151.258 101.484C151.971 100.731 152.799 100.142 153.74 99.7198C154.68 99.2972 155.683 99.0865 156.747 99.0876C157.987 99.089 159.118 99.3641 160.141 99.9129C161.174 100.451 162.041 101.186 162.742 102.117C163.454 103.037 163.96 104.076 164.258 105.234C164.556 106.392 164.586 107.585 164.347 108.815L154.009 108.803C154.153 109.165 154.344 109.496 154.581 109.796C154.829 110.085 155.128 110.318 155.479 110.494C155.841 110.67 156.259 110.764 156.734 110.775C157.189 110.785 157.608 110.688 157.99 110.482C158.383 110.275 158.724 109.997 159.014 109.646L163.756 110.751C163.124 112.125 162.182 113.25 160.931 114.127C159.68 114.994 158.279 115.426 156.729 115.425ZM153.842 105.393L159.654 105.399C159.51 104.955 159.294 104.562 159.005 104.221C158.716 103.879 158.375 103.61 157.982 103.413C157.6 103.217 157.187 103.118 156.743 103.118C156.309 103.117 155.895 103.215 155.502 103.411C155.12 103.607 154.784 103.875 154.494 104.216C154.215 104.556 153.997 104.949 153.842 105.393ZM178.1 99.5451L182.75 99.5503L182.733 115.05L178.067 115.045L177.852 113.65C177.469 114.187 176.983 114.62 176.393 114.95C175.814 115.28 175.137 115.445 174.362 115.444C173.205 115.443 172.12 115.225 171.108 114.789C170.106 114.354 169.223 113.754 168.459 112.989C167.696 112.213 167.097 111.323 166.664 110.321C166.242 109.307 166.031 108.222 166.032 107.065C166.034 105.959 166.236 104.926 166.64 103.966C167.044 103.005 167.608 102.163 168.333 101.441C169.067 100.708 169.91 100.135 170.861 99.7232C171.822 99.3109 172.851 99.1054 173.946 99.1066C174.835 99.1075 175.641 99.2944 176.364 99.6672C177.097 100.03 177.747 100.485 178.315 101.033L178.1 99.5451ZM174.243 110.98C174.884 110.981 175.468 110.816 175.995 110.486C176.523 110.156 176.942 109.712 177.252 109.154C177.563 108.597 177.718 107.977 177.719 107.295C177.72 106.613 177.566 105.993 177.256 105.434C176.947 104.876 176.529 104.431 176.002 104.1C175.476 103.769 174.892 103.603 174.251 103.602C173.611 103.601 173.027 103.766 172.499 104.096C171.982 104.426 171.568 104.87 171.258 105.428C170.957 105.985 170.807 106.605 170.806 107.287C170.805 107.969 170.96 108.589 171.269 109.148C171.579 109.706 171.991 110.151 172.508 110.482C173.034 110.813 173.613 110.979 174.243 110.98ZM194.381 104.213L191.746 104.21L191.734 115.06L187.084 115.055L187.096 104.205L185.081 104.203L185.086 99.5528L187.101 99.555L187.107 94.688L191.757 94.6932L191.751 99.5602L194.386 99.5631L194.381 104.213ZM197.182 115.066L197.184 99.5661L201.834 99.5713L201.848 100.548C202.365 100.104 202.955 99.7585 203.616 99.5112C204.278 99.2639 204.975 99.1407 205.709 99.1415C206.267 99.1421 206.835 99.2254 207.414 99.3914L205.58 104.101C205.218 103.936 204.846 103.853 204.464 103.852C203.978 103.852 203.534 103.97 203.13 104.207C202.738 104.434 202.422 104.749 202.184 105.152C201.956 105.544 201.842 105.983 201.841 106.469L201.832 115.071L197.182 115.066ZM215.157 115.489C213.731 115.487 212.429 115.119 211.252 114.384C210.085 113.649 209.151 112.666 208.45 111.436C207.759 110.195 207.414 108.826 207.416 107.327C207.417 106.191 207.62 105.132 208.024 104.151C208.428 103.159 208.982 102.292 209.685 101.548C210.399 100.795 211.226 100.207 212.167 99.7841C213.108 99.3615 214.111 99.1508 215.175 99.1519C216.601 99.1535 217.897 99.5218 219.064 100.257C220.241 100.992 221.176 101.98 221.866 103.22C222.568 104.461 222.918 105.836 222.916 107.344C222.915 108.471 222.712 109.525 222.308 110.506C221.904 111.487 221.345 112.354 220.631 113.108C219.928 113.851 219.105 114.434 218.165 114.857C217.234 115.279 216.232 115.49 215.157 115.489ZM215.162 110.839C215.751 110.84 216.278 110.68 216.744 110.36C217.219 110.04 217.592 109.617 217.861 109.09C218.13 108.553 218.265 107.97 218.266 107.339C218.267 106.688 218.123 106.094 217.834 105.556C217.555 105.019 217.179 104.595 216.704 104.284C216.239 103.963 215.728 103.803 215.17 103.802C214.591 103.801 214.064 103.966 213.588 104.296C213.123 104.616 212.75 105.044 212.471 105.581C212.202 106.119 212.067 106.702 212.066 107.333C212.065 107.994 212.204 108.588 212.482 109.115C212.771 109.643 213.148 110.062 213.613 110.372C214.088 110.683 214.604 110.838 215.162 110.839Z" fill="black"/>
</svg>
